{"glyphs":{"\u0000":{"ha":0,"x_min":0,"x_max":0,"o":""},"\r":{"ha":347,"x_min":0,"x_max":0,"o":""}," ":{"ha":347,"x_min":0,"x_max":0,"o":""},"A":{"ha":947,"x_min":0,"x_max":0,"o":"m 932 669 b 503 1143 889 935 700 1143 b 179 868 413 1143 289 1038 b -1 344 68 696 -1 496 b 193 40 -1 121 103 40 b 314 90 236 40 279 58 b 504 456 429 196 503 453 b 526 469 507 465 515 471 b 543 450 536 468 543 460 b 733 156 543 447 546 156 b 868 218 788 156 833 176 b 932 669 940 303 965 471 z m 560 603 b 540 585 558 593 550 585 b 538 585 539 585 539 585 b 519 608 526 586 518 597 l 547 838 b 569 856 549 849 558 857 b 588 833 581 854 589 844 z "},"B":{"ha":818,"x_min":0,"x_max":0,"o":"m 810 551 b 613 651 789 618 722 651 b 436 629 561 651 501 644 l 331 601 b 307 615 321 599 310 604 b 319 639 304 625 310 636 l 426 668 b 769 929 606 728 735 825 b 758 1054 786 975 782 1019 b 597 1124 728 1100 672 1124 b 338 1064 506 1124 406 1090 b -1 403 85 960 -1 793 b 288 40 -1 268 36 40 b 369 49 313 40 342 43 b 767 311 529 75 685 178 b 810 551 817 394 832 479 z m 413 771 b 393 753 411 761 403 753 b 390 753 392 753 390 753 b 372 775 379 754 371 764 l 399 1003 b 422 1021 400 1014 411 1022 b 439 999 432 1019 440 1010 z m 324 210 b 303 192 322 200 314 192 b 301 192 303 192 301 192 b 283 214 290 193 282 204 l 310 442 b 332 460 311 453 321 461 b 350 438 343 458 351 449 z "},"C":{"ha":844,"x_min":0,"x_max":0,"o":"m 601 601 b 363 538 519 601 436 579 b 465 478 386 493 421 474 b 633 600 519 483 579 528 b 601 601 622 601 613 601 z m 832 490 b 678 594 806 542 753 579 b 469 438 615 501 539 444 b 453 438 464 438 458 438 b 328 515 415 438 364 451 b 224 415 288 488 253 454 b 199 410 218 407 207 406 b 188 433 190 414 185 424 l 286 804 b 308 819 289 815 299 821 b 325 797 319 818 326 808 b 347 575 325 796 315 669 b 601 642 425 618 514 642 b 660 639 621 642 640 640 b 722 1075 746 778 793 975 b 496 1161 683 1129 599 1161 b 44 819 308 1161 86 1054 b 285 18 -29 399 -53 115 b 397 1 322 7 360 1 b 782 232 574 1 713 121 b 832 490 842 326 861 428 z "},"D":{"ha":986,"x_min":0,"x_max":0,"o":"m 939 888 b 607 1106 885 997 764 1076 b 125 996 424 1139 235 1096 b 36 588 -3 878 -31 669 b 313 639 88 526 186 544 b 357 619 329 650 365 649 b 376 132 357 617 260 278 b 550 68 414 83 471 63 b 889 297 688 76 808 157 b 939 888 994 478 1015 732 z m 564 424 b 544 406 564 414 554 406 b 542 406 543 406 543 406 b 524 428 531 407 522 417 l 551 658 b 574 676 553 669 563 678 b 592 654 585 675 593 665 z "},"E":{"ha":865,"x_min":0,"x_max":0,"o":"m 867 924 b 535 1156 864 1026 722 1147 b 513 1156 526 1156 519 1156 b 11 615 188 1156 39 865 b 94 126 -15 386 13 226 b 371 3 156 53 249 11 l 413 1 b 829 224 592 1 756 89 b 832 475 878 311 878 403 b 608 560 796 532 721 560 b 364 526 539 560 456 549 l 192 476 b 167 490 181 474 171 481 b 179 515 164 500 169 511 l 351 565 b 515 681 457 604 517 647 b 381 753 513 711 464 738 l 296 764 b 282 786 286 767 281 776 b 303 804 283 797 292 804 l 386 793 b 461 792 408 792 433 792 b 696 804 528 792 607 796 b 867 924 806 814 868 857 z "},"F":{"ha":921,"x_min":0,"x_max":0,"o":"m 901 1040 b 753 1144 878 1101 828 1136 b 474 1164 685 1153 581 1164 b 14 981 282 1164 47 1132 b 222 139 -51 681 121 299 b 454 40 260 79 351 40 b 663 121 547 40 626 71 b 678 247 688 156 693 197 b 585 414 639 371 597 406 b 565 444 574 421 558 428 b 603 450 572 464 589 456 b 675 432 617 444 647 432 b 725 485 708 432 724 447 b 607 608 726 544 664 589 b 522 638 560 625 524 636 b 513 663 514 642 510 653 b 536 675 517 672 526 678 b 619 647 538 675 574 664 b 688 640 642 639 667 640 b 833 704 750 640 799 661 b 901 1040 899 785 944 936 z "},"G":{"ha":871,"x_min":0,"x_max":0,"o":"m 774 568 b 450 590 697 614 583 621 b 475 535 456 569 464 551 b 574 471 499 500 531 479 b 726 515 632 461 683 476 b 774 568 744 529 760 547 z m 868 924 b 711 1115 865 999 800 1078 b 588 1142 671 1133 629 1142 b 310 1024 494 1142 399 1101 b 24 589 168 900 67 746 b 83 165 -19 431 1 279 b 471 49 156 65 300 21 b 856 299 660 78 817 181 b 808 540 888 396 869 483 b 806 543 808 542 807 543 b 754 485 790 521 774 501 b 567 431 700 438 638 419 b 440 513 513 440 471 468 b 411 579 428 533 418 556 b 308 544 378 569 343 558 b 175 383 222 510 174 450 b 269 253 175 325 214 272 b 535 363 350 222 447 263 b 564 365 543 371 556 372 b 565 336 572 357 574 344 b 256 214 425 175 301 197 b 133 382 183 240 135 308 b 293 582 132 468 190 540 b 319 592 301 585 311 589 l 417 903 b 440 917 419 914 431 919 b 456 893 451 914 458 903 b 440 629 454 890 419 749 b 794 603 585 664 708 656 b 868 924 850 703 872 838 z "},"H":{"ha":892,"x_min":0,"x_max":0,"o":"m 888 872 b 708 1092 871 1021 811 1094 b 513 1008 626 1089 561 1061 b 408 608 413 901 403 713 b 417 511 410 578 415 544 b 399 490 418 500 410 490 b 376 507 389 489 376 496 b 368 606 376 508 374 547 b 122 1068 335 910 217 1068 b 17 960 78 1068 40 1028 b 210 93 -50 756 92 256 b 274 40 244 44 265 40 b 393 319 365 44 390 235 l 296 318 b 294 318 294 318 294 318 b 275 338 283 318 275 326 b 294 358 274 349 283 358 l 525 364 b 546 344 538 364 546 356 b 526 324 547 332 538 324 l 435 321 b 586 15 436 268 451 15 b 615 19 593 15 601 15 b 813 338 674 32 753 160 b 888 872 875 525 904 731 z "},"I":{"ha":507,"x_min":0,"x_max":0,"o":"m 501 1131 b 385 1236 478 1183 436 1221 b 335 1244 368 1242 351 1244 b 122 1065 240 1244 153 1171 b 111 964 113 1032 108 997 b 156 985 125 972 140 979 b 260 1004 192 997 228 1004 b 471 868 349 1004 421 956 b 511 950 489 892 503 919 b 501 1131 529 1013 526 1076 z m 443 835 b 260 964 406 907 349 964 b 168 947 232 964 201 958 b 119 921 150 940 135 932 b 249 779 138 853 185 799 b 299 772 265 775 282 772 b 443 835 351 772 403 796 z m 507 557 b 460 796 504 604 496 706 b 299 732 414 756 358 732 b 238 740 278 732 257 735 b 88 889 165 763 113 818 b 18 388 -1 785 -14 578 b 288 -67 61 129 178 -67 b 288 -67 288 -67 288 -67 b 299 -65 292 -67 294 -65 b 507 557 421 -53 524 256 z "},"J":{"ha":936,"x_min":0,"x_max":0,"o":"m 575 993 b 417 860 496 972 442 926 b 401 800 408 842 404 821 b 575 974 479 817 547 883 b 579 994 576 981 578 988 b 575 993 578 994 576 993 z m 447 1260 b 399 1267 432 1265 415 1267 b 186 1089 304 1267 217 1194 b 196 910 167 1028 171 964 b 313 803 219 856 261 818 b 360 796 328 799 344 796 b 378 875 363 824 369 850 b 565 1032 408 953 474 1007 b 586 1038 572 1035 579 1036 b 447 1260 592 1140 538 1233 z m 933 576 b 639 1003 914 789 815 1003 b 622 1001 633 1003 628 1001 b 614 963 621 989 617 975 b 399 758 582 854 496 775 b 513 432 400 664 439 550 b 507 404 519 422 517 411 b 479 410 499 399 486 400 b 147 650 478 413 306 650 b 61 621 117 650 88 640 b 28 308 -4 574 -18 449 b 503 -75 85 132 243 -75 b 503 -75 503 -75 503 -75 b 600 -65 535 -75 568 -72 b 933 576 854 -18 960 293 z "},"K":{"ha":1104,"x_min":0,"x_max":0,"o":"m 1078 488 b 799 571 1031 540 929 571 b 601 547 732 571 661 567 l 499 508 b 474 519 488 506 478 510 b 482 546 469 529 472 540 l 589 586 b 1025 907 733 640 976 763 b 1008 1035 1039 950 1035 992 b 924 1093 985 1074 957 1093 b 469 606 775 1093 544 742 b 442 597 464 596 451 593 b 433 625 432 603 428 614 b 489 1040 435 628 560 896 b 376 1124 468 1083 431 1111 b 356 1125 369 1125 363 1125 b 1 397 197 1125 22 715 b 150 44 -4 297 -3 64 b 175 43 158 43 167 43 b 375 376 339 43 369 275 b 376 442 375 415 376 440 b 397 460 378 453 386 460 b 418 440 408 460 417 451 b 417 376 418 440 418 414 b 671 -7 419 233 457 -4 l 675 -7 b 1071 283 858 -7 1008 143 b 1078 488 1110 371 1113 449 z "},"L":{"ha":885,"x_min":0,"x_max":0,"o":"m 815 519 b 721 561 788 547 756 561 b 506 389 650 561 574 500 b 479 381 500 381 489 376 b 468 406 471 385 465 396 b 469 1125 469 411 619 924 b 300 1203 431 1178 375 1203 b 206 1192 271 1203 239 1199 b 11 907 69 1160 25 1000 b 265 126 -31 632 69 240 b 564 40 361 69 465 40 b 886 300 753 40 882 144 b 815 519 888 390 861 471 z "},"M":{"ha":1157,"x_min":0,"x_max":0,"o":"m 1147 615 b 882 1158 1121 882 1014 1158 b 879 1158 881 1158 879 1158 b 607 668 614 1149 607 672 b 588 647 607 646 588 647 b 567 668 574 647 567 657 b 208 1115 560 904 361 1115 b 22 907 118 1115 53 1043 b 179 161 -44 614 57 315 b 388 51 250 72 328 31 b 443 100 414 61 432 76 b 396 386 468 157 456 258 b 339 501 367 450 339 499 b 347 528 335 511 339 522 b 375 519 357 532 369 529 b 432 404 376 518 399 468 b 597 197 532 211 585 196 b 717 471 626 200 679 275 b 747 636 733 563 746 633 b 769 651 749 646 760 653 b 786 628 781 649 788 639 b 757 464 786 628 771 553 b 806 85 736 335 735 164 b 910 40 832 54 865 40 b 958 46 925 40 940 42 b 1147 615 1125 79 1174 356 z "},"N":{"ha":910,"x_min":0,"x_max":0,"o":"m 875 771 b 590 1114 819 986 714 1114 b 574 1114 585 1114 579 1114 b 453 1049 517 1108 478 1088 b 478 631 390 953 424 767 b 567 410 525 510 567 411 b 556 385 569 400 565 389 b 529 394 546 381 533 385 b 440 615 528 399 489 497 b 139 967 343 846 228 967 b 119 965 132 967 125 967 b 7 399 33 947 -21 672 b 206 14 26 211 89 10 b 301 60 249 17 279 31 b 303 404 344 118 350 242 b 264 526 282 475 265 525 b 278 551 261 538 268 549 b 303 539 288 554 299 549 b 342 417 304 538 318 486 b 653 44 388 275 499 44 b 744 69 682 44 713 53 b 875 771 913 163 943 506 z "},"O":{"ha":731,"x_min":0,"x_max":0,"o":"m 721 942 b 525 1142 679 1128 560 1142 b 519 1142 521 1142 519 1142 b 21 508 349 1129 93 804 b 139 83 -14 369 -21 182 b 276 40 185 56 231 40 b 276 40 276 40 276 40 b 510 178 358 40 436 86 b 721 942 676 385 760 758 z m 389 436 b 368 418 388 425 378 418 b 365 418 368 418 367 418 b 349 440 354 419 347 429 l 375 671 b 397 689 376 682 386 690 b 415 665 408 688 417 676 z "},"P":{"ha":906,"x_min":0,"x_max":0,"o":"m 758 1124 b 517 1200 686 1174 603 1200 b 22 725 308 1200 72 1036 b 104 132 -21 454 8 244 b 404 49 181 42 296 28 b 542 136 482 63 529 92 b 367 467 574 239 426 410 b 365 494 358 475 358 488 b 393 497 372 503 382 501 b 407 493 393 497 397 496 b 451 488 417 490 431 488 b 651 532 504 488 571 503 b 903 835 783 578 886 703 b 758 1124 917 949 867 1051 z m 408 608 b 388 590 407 597 399 590 b 386 590 388 590 386 590 b 368 613 375 592 367 601 l 394 843 b 417 860 396 854 406 861 b 435 838 428 858 436 849 z "},"Q":{"ha":938,"x_min":0,"x_max":0,"o":"m 879 1069 b 676 1144 826 1119 756 1144 b 33 529 439 1144 133 914 b 47 147 -12 350 -8 218 b 182 86 88 93 150 86 b 207 88 197 86 207 88 b 210 88 207 88 208 88 b 222 83 214 88 218 86 b 231 69 226 81 229 75 b 618 -142 267 -192 401 -344 b 718 44 701 -64 735 1 b 403 144 686 124 499 144 b 383 163 393 144 385 153 b 396 185 382 172 388 182 b 621 349 397 185 499 219 b 836 638 622 350 744 482 b 879 1069 918 778 992 965 z m 386 417 b 365 399 385 406 375 399 b 363 399 365 399 364 399 b 346 421 351 400 344 410 l 372 651 b 394 669 374 663 383 671 b 413 646 406 668 414 657 z "},"R":{"ha":990,"x_min":0,"x_max":0,"o":"m 982 346 b 638 532 944 500 774 532 b 535 525 594 532 558 528 b 497 521 522 524 510 522 b 475 538 486 519 476 526 b 492 561 474 549 481 558 b 529 567 492 561 506 564 b 933 847 743 600 894 706 b 867 1081 958 935 933 1025 b 646 1142 821 1119 743 1142 b 56 774 408 1142 129 1015 b 79 103 -24 515 -12 226 b 190 40 110 61 147 40 b 190 40 190 40 190 40 b 204 42 194 40 200 40 b 296 90 244 44 274 61 b 321 386 363 181 326 365 b 321 392 321 390 321 392 b 336 415 318 403 325 414 b 340 417 338 417 339 417 b 360 401 350 417 358 410 b 361 394 360 401 360 399 b 576 36 368 367 428 119 b 682 11 606 19 642 11 b 938 133 779 11 879 60 b 982 346 971 176 1006 247 z m 410 646 b 390 629 408 636 400 629 b 388 629 389 629 389 629 b 369 651 376 631 368 640 l 397 881 b 419 899 399 892 408 900 b 438 876 431 897 439 888 z "},"S":{"ha":957,"x_min":0,"x_max":0,"o":"m 389 760 b 392 756 389 758 390 757 b 481 713 407 728 436 714 b 678 793 547 710 619 740 b 389 760 551 806 456 786 z m 953 601 b 744 783 932 701 860 764 b 729 786 740 785 735 785 b 479 672 660 713 567 668 b 356 735 421 675 379 696 b 351 743 354 738 353 740 b 254 672 285 710 256 674 b 228 667 244 663 236 661 b 221 693 219 672 215 685 l 381 999 b 407 1007 386 1008 397 1011 b 417 979 417 1001 421 990 b 378 800 401 947 371 864 b 714 829 456 829 565 849 b 765 910 735 853 753 881 b 740 1163 810 1004 801 1096 b 335 1172 672 1239 504 1243 b 3 746 167 1103 -8 956 b 74 590 7 671 31 618 b 289 592 147 544 261 576 b 701 619 467 688 699 621 b 714 594 713 617 718 606 b 689 581 711 583 700 578 b 321 563 678 585 478 646 l 303 553 b 169 383 247 519 200 465 b 228 111 115 239 171 156 b 717 118 347 17 567 19 b 953 601 881 225 986 442 z "},"T":{"ha":910,"x_min":0,"x_max":0,"o":"m 892 1031 b 743 1136 868 1092 817 1126 b 449 1154 671 1144 561 1154 b 4 974 251 1154 15 1124 b 44 672 -4 856 -7 728 b 129 640 65 650 93 640 b 226 658 157 640 189 646 b 233 658 229 658 231 658 b 247 651 239 658 244 656 b 251 631 253 646 254 638 b 213 129 250 626 107 296 b 421 40 246 75 326 40 b 650 133 519 40 610 78 b 665 267 678 171 682 215 b 506 635 578 522 506 633 b 507 660 500 643 500 653 b 531 664 513 667 522 668 b 678 631 532 664 601 631 b 824 694 739 631 789 651 b 892 1031 889 775 933 926 z "},"U":{"ha":979,"x_min":0,"x_max":0,"o":"m 978 742 b 781 1044 960 935 888 1044 b 579 914 706 1044 621 989 b 447 431 514 799 468 561 b 435 339 439 376 435 340 b 411 322 432 329 422 321 b 394 346 400 325 393 335 b 408 438 394 346 400 382 b 304 1104 429 586 478 1078 b 179 1047 261 1110 219 1092 b 3 292 40 892 -19 489 b 307 53 24 114 132 3 b 513 231 432 86 513 229 b 531 242 517 238 524 242 b 538 240 533 242 535 242 b 551 219 546 238 551 229 b 586 60 551 218 542 114 b 649 31 603 42 622 32 b 800 119 690 29 749 63 b 978 742 903 232 1003 454 z "},"V":{"ha":1004,"x_min":0,"x_max":0,"o":"m 938 960 b 865 981 913 974 888 981 b 564 361 688 981 588 533 b 543 343 563 350 553 342 b 524 363 532 343 524 353 b 186 1078 524 369 501 1078 b 139 1074 171 1078 156 1076 b 1 847 46 1056 -1 979 b 461 40 8 543 278 68 b 481 39 467 40 474 39 b 983 658 663 39 910 379 b 938 960 1007 747 1032 904 z "},"W":{"ha":1121,"x_min":0,"x_max":0,"o":"m 961 1104 b 801 1056 890 1115 838 1100 b 758 563 706 942 739 674 l 772 493 b 756 471 774 483 767 472 b 732 486 744 468 735 475 l 718 554 b 618 717 693 657 657 717 b 614 717 617 717 615 717 b 543 535 546 710 542 575 l 544 506 b 525 486 544 496 535 486 b 503 504 514 485 504 493 b 258 1015 500 585 467 1015 b 207 1008 242 1015 225 1014 b 18 779 92 978 40 867 b 181 82 -40 543 35 218 b 351 0 238 29 296 0 b 614 471 496 0 604 193 b 636 506 615 486 614 507 b 656 469 657 506 656 483 b 742 72 651 324 674 142 b 821 42 764 49 790 39 b 1122 769 932 51 1110 436 b 961 1104 1126 885 1111 1081 z "},"X":{"ha":1054,"x_min":0,"x_max":0,"o":"m 1001 540 b 894 563 969 554 932 563 b 728 521 803 563 733 524 b 701 529 718 517 707 519 b 707 557 696 539 699 551 b 1033 936 711 560 1019 751 b 967 1082 1038 990 1015 1039 b 867 1128 932 1113 899 1128 b 614 688 726 1128 638 810 b 574 688 610 667 579 665 b 310 1068 572 693 503 1068 b 201 1033 276 1068 240 1057 b 68 821 106 976 61 906 b 313 533 81 688 218 568 b 325 513 321 529 326 521 b 310 494 325 503 318 496 b 7 313 307 493 56 440 b 47 153 -10 265 3 211 b 213 46 101 82 157 46 b 492 336 371 46 490 333 b 510 349 494 344 503 349 b 513 349 511 349 511 349 b 531 333 521 349 528 342 b 767 29 531 331 597 29 b 814 36 782 29 797 32 b 1056 403 949 76 1047 258 b 1001 540 1058 475 1039 525 z "},"Y":{"ha":796,"x_min":0,"x_max":0,"o":"m 361 553 b 172 447 301 567 229 525 b 285 421 206 429 243 421 b 458 465 350 421 413 444 b 361 553 440 513 408 542 z m 765 489 b 672 529 736 525 690 529 b 663 529 665 529 663 529 b 643 538 656 528 649 532 b 642 557 639 543 639 550 b 756 1193 697 693 828 1074 b 696 1229 742 1215 722 1226 b 686 1229 693 1229 689 1229 b 479 686 496 1229 486 800 b 458 668 478 675 469 668 b 439 689 447 669 439 678 b 247 1249 449 832 492 1249 l 244 1249 b 61 1096 176 1247 110 1192 b 81 531 -15 940 -35 690 b 139 469 99 507 118 486 b 336 596 196 549 268 596 b 371 592 349 596 360 594 b 494 485 429 578 471 542 b 551 522 529 506 550 522 b 575 524 558 528 567 528 b 583 501 582 518 585 510 l 501 199 b 479 185 499 189 489 183 b 463 206 469 186 461 194 b 465 238 463 213 464 224 b 469 426 472 282 482 358 b 285 381 419 403 354 381 b 150 414 236 381 190 392 b 150 61 86 306 60 154 b 357 -15 197 13 271 -15 b 785 290 535 -15 744 99 b 765 489 804 382 797 449 z "},"Z":{"ha":889,"x_min":0,"x_max":0,"o":"m 678 663 b 457 504 593 663 514 585 b 729 653 549 531 656 576 b 678 663 711 660 694 663 z m 814 593 b 767 633 799 610 782 622 b 422 454 674 532 531 479 b 329 275 365 363 331 276 b 311 263 326 267 319 263 b 292 275 303 263 294 268 l 231 440 b 233 458 229 446 229 453 b 249 468 236 464 243 467 b 397 490 250 468 314 471 b 678 703 489 631 583 703 b 756 685 704 703 731 697 b 814 939 808 756 828 840 b 378 1221 788 1122 569 1221 b 17 990 232 1221 60 1160 b 39 815 -3 917 6 858 b 356 715 103 733 246 715 b 483 724 428 715 482 724 b 486 724 483 724 485 724 b 506 707 496 724 504 717 b 489 683 507 696 500 685 b -1 313 158 635 6 463 b 306 15 -6 174 111 60 b 440 0 351 6 397 0 b 440 0 440 0 440 0 b 861 263 628 0 793 103 b 814 593 913 383 894 510 z "},".":{"ha":639,"x_min":0,"x_max":0,"o":"m 331 513 b 117 333 236 513 149 439 b 128 154 99 272 103 208 b 244 47 151 101 193 63 b 294 40 260 43 276 40 b 507 219 388 40 475 114 b 379 506 543 344 486 474 b 331 513 364 510 347 513 z "},"a":{"ha":947,"x_min":0,"x_max":0,"o":"m 932 669 b 503 1143 889 935 700 1143 b 179 868 413 1143 289 1038 b -1 344 68 696 -1 496 b 193 40 -1 121 103 40 b 314 90 236 40 279 58 b 504 456 429 196 503 453 b 526 469 507 465 515 471 b 543 450 536 468 543 460 b 733 156 543 447 546 156 b 868 218 788 156 833 176 b 932 669 940 303 965 471 z m 560 603 b 540 585 558 593 550 585 b 538 585 539 585 539 585 b 519 608 526 586 518 597 l 547 838 b 569 856 549 849 558 857 b 588 833 581 854 589 844 z "},"b":{"ha":818,"x_min":0,"x_max":0,"o":"m 810 551 b 613 651 789 618 722 651 b 436 629 561 651 501 644 l 331 601 b 307 615 321 599 310 604 b 319 639 304 625 310 636 l 426 668 b 769 929 606 728 735 825 b 758 1054 786 975 782 1019 b 597 1124 728 1100 672 1124 b 338 1064 506 1124 406 1090 b -1 403 85 960 -1 793 b 288 40 -1 268 36 40 b 369 49 313 40 342 43 b 767 311 529 75 685 178 b 810 551 817 394 832 479 z m 413 771 b 393 753 411 761 403 753 b 390 753 392 753 390 753 b 372 775 379 754 371 764 l 399 1003 b 422 1021 400 1014 411 1022 b 439 999 432 1019 440 1010 z m 324 210 b 303 192 322 200 314 192 b 301 192 303 192 301 192 b 283 214 290 193 282 204 l 310 442 b 332 460 311 453 321 461 b 350 438 343 458 351 449 z "},"c":{"ha":844,"x_min":0,"x_max":0,"o":"m 601 601 b 363 538 519 601 436 579 b 465 478 386 493 421 474 b 633 600 519 483 579 528 b 601 601 622 601 613 601 z m 832 490 b 678 594 806 542 753 579 b 469 438 615 501 539 444 b 453 438 464 438 458 438 b 328 515 415 438 364 451 b 224 415 288 488 253 454 b 199 410 218 407 207 406 b 188 433 190 414 185 424 l 286 804 b 308 819 289 815 299 821 b 325 797 319 818 326 808 b 347 575 325 796 315 669 b 601 642 425 618 514 642 b 660 639 621 642 640 640 b 722 1075 746 778 793 975 b 496 1161 683 1129 599 1161 b 44 819 308 1161 86 1054 b 285 18 -29 399 -53 115 b 397 1 322 7 360 1 b 782 232 574 1 713 121 b 832 490 842 326 861 428 z "},"d":{"ha":986,"x_min":0,"x_max":0,"o":"m 939 888 b 607 1106 885 997 764 1076 b 125 996 424 1139 235 1096 b 36 588 -3 878 -31 669 b 313 639 88 526 186 544 b 357 619 329 650 365 649 b 376 132 357 617 260 278 b 550 68 414 83 471 63 b 889 297 688 76 808 157 b 939 888 994 478 1015 732 z m 564 424 b 544 406 564 414 554 406 b 542 406 543 406 543 406 b 524 428 531 407 522 417 l 551 658 b 574 676 553 669 563 678 b 592 654 585 675 593 665 z "},"e":{"ha":865,"x_min":0,"x_max":0,"o":"m 867 924 b 535 1156 864 1026 722 1147 b 513 1156 526 1156 519 1156 b 11 615 188 1156 39 865 b 94 126 -15 386 13 226 b 371 3 156 53 249 11 l 413 1 b 829 224 592 1 756 89 b 832 475 878 311 878 403 b 608 560 796 532 721 560 b 364 526 539 560 456 549 l 192 476 b 167 490 181 474 171 481 b 179 515 164 500 169 511 l 351 565 b 515 681 457 604 517 647 b 381 753 513 711 464 738 l 296 764 b 282 786 286 767 281 776 b 303 804 283 797 292 804 l 386 793 b 461 792 408 792 433 792 b 696 804 528 792 607 796 b 867 924 806 814 868 857 z "},"f":{"ha":921,"x_min":0,"x_max":0,"o":"m 901 1040 b 753 1144 878 1101 828 1136 b 474 1164 685 1153 581 1164 b 14 981 282 1164 47 1132 b 222 139 -51 681 121 299 b 454 40 260 79 351 40 b 663 121 547 40 626 71 b 678 247 688 156 693 197 b 585 414 639 371 597 406 b 565 444 574 421 558 428 b 603 450 572 464 589 456 b 675 432 617 444 647 432 b 725 485 708 432 724 447 b 607 608 726 544 664 589 b 522 638 560 625 524 636 b 513 663 514 642 510 653 b 536 675 517 672 526 678 b 619 647 538 675 574 664 b 688 640 642 639 667 640 b 833 704 750 640 799 661 b 901 1040 899 785 944 936 z "},"g":{"ha":871,"x_min":0,"x_max":0,"o":"m 774 568 b 450 590 697 614 583 621 b 475 535 456 569 464 551 b 574 471 499 500 531 479 b 726 515 632 461 683 476 b 774 568 744 529 760 547 z m 868 924 b 711 1115 865 999 800 1078 b 588 1142 671 1133 629 1142 b 310 1024 494 1142 399 1101 b 24 589 168 900 67 746 b 83 165 -19 431 1 279 b 471 49 156 65 300 21 b 856 299 660 78 817 181 b 808 540 888 396 869 483 b 806 543 808 542 807 543 b 754 485 790 521 774 501 b 567 431 700 438 638 419 b 440 513 513 440 471 468 b 411 579 428 533 418 556 b 308 544 378 569 343 558 b 175 383 222 510 174 450 b 269 253 175 325 214 272 b 535 363 350 222 447 263 b 564 365 543 371 556 372 b 565 336 572 357 574 344 b 256 214 425 175 301 197 b 133 382 183 240 135 308 b 293 582 132 468 190 540 b 319 592 301 585 311 589 l 417 903 b 440 917 419 914 431 919 b 456 893 451 914 458 903 b 440 629 454 890 419 749 b 794 603 585 664 708 656 b 868 924 850 703 872 838 z "},"h":{"ha":892,"x_min":0,"x_max":0,"o":"m 888 872 b 708 1092 871 1021 811 1094 b 513 1008 626 1089 561 1061 b 408 608 413 901 403 713 b 417 511 410 578 415 544 b 399 490 418 500 410 490 b 376 507 389 489 376 496 b 368 606 376 508 374 547 b 122 1068 335 910 217 1068 b 17 960 78 1068 40 1028 b 210 93 -50 756 92 256 b 274 40 244 44 265 40 b 393 319 365 44 390 235 l 296 318 b 294 318 294 318 294 318 b 275 338 283 318 275 326 b 294 358 274 349 283 358 l 525 364 b 546 344 538 364 546 356 b 526 324 547 332 538 324 l 435 321 b 586 15 436 268 451 15 b 615 19 593 15 601 15 b 813 338 674 32 753 160 b 888 872 875 525 904 731 z "},"i":{"ha":507,"x_min":0,"x_max":0,"o":"m 501 1131 b 385 1236 478 1183 436 1221 b 335 1244 368 1242 351 1244 b 122 1065 240 1244 153 1171 b 111 964 113 1032 108 997 b 156 985 125 972 140 979 b 260 1004 192 997 228 1004 b 471 868 349 1004 421 956 b 511 950 489 892 503 919 b 501 1131 529 1013 526 1076 z m 443 835 b 260 964 406 907 349 964 b 168 947 232 964 201 958 b 119 921 150 940 135 932 b 249 779 138 853 185 799 b 299 772 265 775 282 772 b 443 835 351 772 403 796 z m 507 557 b 460 796 504 604 496 706 b 299 732 414 756 358 732 b 238 740 278 732 257 735 b 88 889 165 763 113 818 b 18 388 -1 785 -14 578 b 288 -67 61 129 178 -67 b 288 -67 288 -67 288 -67 b 299 -65 292 -67 294 -65 b 507 557 421 -53 524 256 z "},"j":{"ha":936,"x_min":0,"x_max":0,"o":"m 575 993 b 417 860 496 972 442 926 b 401 800 408 842 404 821 b 575 974 479 817 547 883 b 579 994 576 981 578 988 b 575 993 578 994 576 993 z m 447 1260 b 399 1267 432 1265 415 1267 b 186 1089 304 1267 217 1194 b 196 910 167 1028 171 964 b 313 803 219 856 261 818 b 360 796 328 799 344 796 b 378 875 363 824 369 850 b 565 1032 408 953 474 1007 b 586 1038 572 1035 579 1036 b 447 1260 592 1140 538 1233 z m 933 576 b 639 1003 914 789 815 1003 b 622 1001 633 1003 628 1001 b 614 963 621 989 617 975 b 399 758 582 854 496 775 b 513 432 400 664 439 550 b 507 404 519 422 517 411 b 479 410 499 399 486 400 b 147 650 478 413 306 650 b 61 621 117 650 88 640 b 28 308 -4 574 -18 449 b 503 -75 85 132 243 -75 b 503 -75 503 -75 503 -75 b 600 -65 535 -75 568 -72 b 933 576 854 -18 960 293 z "},"k":{"ha":1104,"x_min":0,"x_max":0,"o":"m 1078 488 b 799 571 1031 540 929 571 b 601 547 732 571 661 567 l 499 508 b 474 519 488 506 478 510 b 482 546 469 529 472 540 l 589 586 b 1025 907 733 640 976 763 b 1008 1035 1039 950 1035 992 b 924 1093 985 1074 957 1093 b 469 606 775 1093 544 742 b 442 597 464 596 451 593 b 433 625 432 603 428 614 b 489 1040 435 628 560 896 b 376 1124 468 1083 431 1111 b 356 1125 369 1125 363 1125 b 1 397 197 1125 22 715 b 150 44 -4 297 -3 64 b 175 43 158 43 167 43 b 375 376 339 43 369 275 b 376 442 375 415 376 440 b 397 460 378 453 386 460 b 418 440 408 460 417 451 b 417 376 418 440 418 414 b 671 -7 419 233 457 -4 l 675 -7 b 1071 283 858 -7 1008 143 b 1078 488 1110 371 1113 449 z "},"l":{"ha":885,"x_min":0,"x_max":0,"o":"m 815 519 b 721 561 788 547 756 561 b 506 389 650 561 574 500 b 479 381 500 381 489 376 b 468 406 471 385 465 396 b 469 1125 469 411 619 924 b 300 1203 431 1178 375 1203 b 206 1192 271 1203 239 1199 b 11 907 69 1160 25 1000 b 265 126 -31 632 69 240 b 564 40 361 69 465 40 b 886 300 753 40 882 144 b 815 519 888 390 861 471 z "},"m":{"ha":1157,"x_min":0,"x_max":0,"o":"m 1147 615 b 882 1158 1121 882 1014 1158 b 879 1158 881 1158 879 1158 b 607 668 614 1149 607 672 b 588 647 607 646 588 647 b 567 668 574 647 567 657 b 208 1115 560 904 361 1115 b 22 907 118 1115 53 1043 b 179 161 -44 614 57 315 b 388 51 250 72 328 31 b 443 100 414 61 432 76 b 396 386 468 157 456 258 b 339 501 367 450 339 499 b 347 528 335 511 339 522 b 375 519 357 532 369 529 b 432 404 376 518 399 468 b 597 197 532 211 585 196 b 717 471 626 200 679 275 b 747 636 733 563 746 633 b 769 651 749 646 760 653 b 786 628 781 649 788 639 b 757 464 786 628 771 553 b 806 85 736 335 735 164 b 910 40 832 54 865 40 b 958 46 925 40 940 42 b 1147 615 1125 79 1174 356 z "},"n":{"ha":910,"x_min":0,"x_max":0,"o":"m 875 771 b 590 1114 819 986 714 1114 b 574 1114 585 1114 579 1114 b 453 1049 517 1108 478 1088 b 478 631 390 953 424 767 b 567 410 525 510 567 411 b 556 385 569 400 565 389 b 529 394 546 381 533 385 b 440 615 528 399 489 497 b 139 967 343 846 228 967 b 119 965 132 967 125 967 b 7 399 33 947 -21 672 b 206 14 26 211 89 10 b 301 60 249 17 279 31 b 303 404 344 118 350 242 b 264 526 282 475 265 525 b 278 551 261 538 268 549 b 303 539 288 554 299 549 b 342 417 304 538 318 486 b 653 44 388 275 499 44 b 744 69 682 44 713 53 b 875 771 913 163 943 506 z "},"o":{"ha":731,"x_min":0,"x_max":0,"o":"m 721 942 b 525 1142 679 1128 560 1142 b 519 1142 521 1142 519 1142 b 21 508 349 1129 93 804 b 139 83 -14 369 -21 182 b 276 40 185 56 231 40 b 276 40 276 40 276 40 b 510 178 358 40 436 86 b 721 942 676 385 760 758 z m 389 436 b 368 418 388 425 378 418 b 365 418 368 418 367 418 b 349 440 354 419 347 429 l 375 671 b 397 689 376 682 386 690 b 415 665 408 688 417 676 z "},"p":{"ha":906,"x_min":0,"x_max":0,"o":"m 758 1124 b 517 1200 686 1174 603 1200 b 22 725 308 1200 72 1036 b 104 132 -21 454 8 244 b 404 49 181 42 296 28 b 542 136 482 63 529 92 b 367 467 574 239 426 410 b 365 494 358 475 358 488 b 393 497 372 503 382 501 b 407 493 393 497 397 496 b 451 488 417 490 431 488 b 651 532 504 488 571 503 b 903 835 783 578 886 703 b 758 1124 917 949 867 1051 z m 408 608 b 388 590 407 597 399 590 b 386 590 388 590 386 590 b 368 613 375 592 367 601 l 394 843 b 417 860 396 854 406 861 b 435 838 428 858 436 849 z "},"q":{"ha":938,"x_min":0,"x_max":0,"o":"m 879 1069 b 676 1144 826 1119 756 1144 b 33 529 439 1144 133 914 b 47 147 -12 350 -8 218 b 182 86 88 93 150 86 b 207 88 197 86 207 88 b 210 88 207 88 208 88 b 222 83 214 88 218 86 b 231 69 226 81 229 75 b 618 -142 267 -192 401 -344 b 718 44 701 -64 735 1 b 403 144 686 124 499 144 b 383 163 393 144 385 153 b 396 185 382 172 388 182 b 621 349 397 185 499 219 b 836 638 622 350 744 482 b 879 1069 918 778 992 965 z m 386 417 b 365 399 385 406 375 399 b 363 399 365 399 364 399 b 346 421 351 400 344 410 l 372 651 b 394 669 374 663 383 671 b 413 646 406 668 414 657 z "},"r":{"ha":990,"x_min":0,"x_max":0,"o":"m 982 346 b 638 532 944 500 774 532 b 535 525 594 532 558 528 b 497 521 522 524 510 522 b 475 538 486 519 476 526 b 492 561 474 549 481 558 b 529 567 492 561 506 564 b 933 847 743 600 894 706 b 867 1081 958 935 933 1025 b 646 1142 821 1119 743 1142 b 56 774 408 1142 129 1015 b 79 103 -24 515 -12 226 b 190 40 110 61 147 40 b 190 40 190 40 190 40 b 204 42 194 40 200 40 b 296 90 244 44 274 61 b 321 386 363 181 326 365 b 321 392 321 390 321 392 b 336 415 318 403 325 414 b 340 417 338 417 339 417 b 360 401 350 417 358 410 b 361 394 360 401 360 399 b 576 36 368 367 428 119 b 682 11 606 19 642 11 b 938 133 779 11 879 60 b 982 346 971 176 1006 247 z m 410 646 b 390 629 408 636 400 629 b 388 629 389 629 389 629 b 369 651 376 631 368 640 l 397 881 b 419 899 399 892 408 900 b 438 876 431 897 439 888 z "},"s":{"ha":957,"x_min":0,"x_max":0,"o":"m 389 760 b 392 756 389 758 390 757 b 481 713 407 728 436 714 b 678 793 547 710 619 740 b 389 760 551 806 456 786 z m 953 601 b 744 783 932 701 860 764 b 729 786 740 785 735 785 b 479 672 660 713 567 668 b 356 735 421 675 379 696 b 351 743 354 738 353 740 b 254 672 285 710 256 674 b 228 667 244 663 236 661 b 221 693 219 672 215 685 l 381 999 b 407 1007 386 1008 397 1011 b 417 979 417 1001 421 990 b 378 800 401 947 371 864 b 714 829 456 829 565 849 b 765 910 735 853 753 881 b 740 1163 810 1004 801 1096 b 335 1172 672 1239 504 1243 b 3 746 167 1103 -8 956 b 74 590 7 671 31 618 b 289 592 147 544 261 576 b 701 619 467 688 699 621 b 714 594 713 617 718 606 b 689 581 711 583 700 578 b 321 563 678 585 478 646 l 303 553 b 169 383 247 519 200 465 b 228 111 115 239 171 156 b 717 118 347 17 567 19 b 953 601 881 225 986 442 z "},"t":{"ha":910,"x_min":0,"x_max":0,"o":"m 892 1031 b 743 1136 868 1092 817 1126 b 449 1154 671 1144 561 1154 b 4 974 251 1154 15 1124 b 44 672 -4 856 -7 728 b 129 640 65 650 93 640 b 226 658 157 640 189 646 b 233 658 229 658 231 658 b 247 651 239 658 244 656 b 251 631 253 646 254 638 b 213 129 250 626 107 296 b 421 40 246 75 326 40 b 650 133 519 40 610 78 b 665 267 678 171 682 215 b 506 635 578 522 506 633 b 507 660 500 643 500 653 b 531 664 513 667 522 668 b 678 631 532 664 601 631 b 824 694 739 631 789 651 b 892 1031 889 775 933 926 z "},"u":{"ha":979,"x_min":0,"x_max":0,"o":"m 978 742 b 781 1044 960 935 888 1044 b 579 914 706 1044 621 989 b 447 431 514 799 468 561 b 435 339 439 376 435 340 b 411 322 432 329 422 321 b 394 346 400 325 393 335 b 408 438 394 346 400 382 b 304 1104 429 586 478 1078 b 179 1047 261 1110 219 1092 b 3 292 40 892 -19 489 b 307 53 24 114 132 3 b 513 231 432 86 513 229 b 531 242 517 238 524 242 b 538 240 533 242 535 242 b 551 219 546 238 551 229 b 586 60 551 218 542 114 b 649 31 603 42 622 32 b 800 119 690 29 749 63 b 978 742 903 232 1003 454 z "},"v":{"ha":1004,"x_min":0,"x_max":0,"o":"m 938 960 b 865 981 913 974 888 981 b 564 361 688 981 588 533 b 543 343 563 350 553 342 b 524 363 532 343 524 353 b 186 1078 524 369 501 1078 b 139 1074 171 1078 156 1076 b 1 847 46 1056 -1 979 b 461 40 8 543 278 68 b 481 39 467 40 474 39 b 983 658 663 39 910 379 b 938 960 1007 747 1032 904 z "},"w":{"ha":1121,"x_min":0,"x_max":0,"o":"m 961 1104 b 801 1056 890 1115 838 1100 b 758 563 706 942 739 674 l 772 493 b 756 471 774 483 767 472 b 732 486 744 468 735 475 l 718 554 b 618 717 693 657 657 717 b 614 717 617 717 615 717 b 543 535 546 710 542 575 l 544 506 b 525 486 544 496 535 486 b 503 504 514 485 504 493 b 258 1015 500 585 467 1015 b 207 1008 242 1015 225 1014 b 18 779 92 978 40 867 b 181 82 -40 543 35 218 b 351 0 238 29 296 0 b 614 471 496 0 604 193 b 636 506 615 486 614 507 b 656 469 657 506 656 483 b 742 72 651 324 674 142 b 821 42 764 49 790 39 b 1122 769 932 51 1110 436 b 961 1104 1126 885 1111 1081 z "},"x":{"ha":1054,"x_min":0,"x_max":0,"o":"m 1001 540 b 894 563 969 554 932 563 b 728 521 803 563 733 524 b 701 529 718 517 707 519 b 707 557 696 539 699 551 b 1033 936 711 560 1019 751 b 967 1082 1038 990 1015 1039 b 867 1128 932 1113 899 1128 b 614 688 726 1128 638 810 b 574 688 610 667 579 665 b 310 1068 572 693 503 1068 b 201 1033 276 1068 240 1057 b 68 821 106 976 61 906 b 313 533 81 688 218 568 b 325 513 321 529 326 521 b 310 494 325 503 318 496 b 7 313 307 493 56 440 b 47 153 -10 265 3 211 b 213 46 101 82 157 46 b 492 336 371 46 490 333 b 510 349 494 344 503 349 b 513 349 511 349 511 349 b 531 333 521 349 528 342 b 767 29 531 331 597 29 b 814 36 782 29 797 32 b 1056 403 949 76 1047 258 b 1001 540 1058 475 1039 525 z "},"y":{"ha":796,"x_min":0,"x_max":0,"o":"m 361 553 b 172 447 301 567 229 525 b 285 421 206 429 243 421 b 458 465 350 421 413 444 b 361 553 440 513 408 542 z m 765 489 b 672 529 736 525 690 529 b 663 529 665 529 663 529 b 643 538 656 528 649 532 b 642 557 639 543 639 550 b 756 1193 697 693 828 1074 b 696 1229 742 1215 722 1226 b 686 1229 693 1229 689 1229 b 479 686 496 1229 486 800 b 458 668 478 675 469 668 b 439 689 447 669 439 678 b 247 1249 449 832 492 1249 l 244 1249 b 61 1096 176 1247 110 1192 b 81 531 -15 940 -35 690 b 139 469 99 507 118 486 b 336 596 196 549 268 596 b 371 592 349 596 360 594 b 494 485 429 578 471 542 b 551 522 529 506 550 522 b 575 524 558 528 567 528 b 583 501 582 518 585 510 l 501 199 b 479 185 499 189 489 183 b 463 206 469 186 461 194 b 465 238 463 213 464 224 b 469 426 472 282 482 358 b 285 381 419 403 354 381 b 150 414 236 381 190 392 b 150 61 86 306 60 154 b 357 -15 197 13 271 -15 b 785 290 535 -15 744 99 b 765 489 804 382 797 449 z "},"z":{"ha":889,"x_min":0,"x_max":0,"o":"m 678 663 b 457 504 593 663 514 585 b 729 653 549 531 656 576 b 678 663 711 660 694 663 z m 814 593 b 767 633 799 610 782 622 b 422 454 674 532 531 479 b 329 275 365 363 331 276 b 311 263 326 267 319 263 b 292 275 303 263 294 268 l 231 440 b 233 458 229 446 229 453 b 249 468 236 464 243 467 b 397 490 250 468 314 471 b 678 703 489 631 583 703 b 756 685 704 703 731 697 b 814 939 808 756 828 840 b 378 1221 788 1122 569 1221 b 17 990 232 1221 60 1160 b 39 815 -3 917 6 858 b 356 715 103 733 246 715 b 483 724 428 715 482 724 b 486 724 483 724 485 724 b 506 707 496 724 504 717 b 489 683 507 696 500 685 b -1 313 158 635 6 463 b 306 15 -6 174 111 60 b 440 0 351 6 397 0 b 440 0 440 0 440 0 b 861 263 628 0 793 103 b 814 593 913 383 894 510 z "}}}
